{
	"asset":{
		"copyright":"Copyleft PieWorks (stdpi.work)",
		"generator":"Khronos glTF Blender I/O v4.1.62",
		"version":"2.0"
	},
	"scene":0,
	"scenes":[
		{
			"name":"Scene",
			"nodes":[
				1
			]
		}
	],
	"nodes":[
		{
			"mesh":0,
			"name":"circle",
			"rotation":[
				0,
				-0.013084575533866882,
				0,
				0.9999144077301025
			],
			"translation":[
				0,
				0.004999999422580004,
				0
			]
		},
		{
			"children":[
				0
			],
			"mesh":1,
			"name":"lid",
			"rotation":[
				0,
				-0.013084578327834606,
				0,
				0.9999144077301025
			],
			"translation":[
				0,
				-0.009999999776482582,
				0
			]
		}
	],
	"animations":[
		{
			"channels":[
				{
					"sampler":0,
					"target":{
						"node":1,
						"path":"rotation"
					}
				}
			],
			"name":"Steppy",
			"samplers":[
				{
					"input":8,
					"interpolation":"LINEAR",
					"output":9
				}
			]
		},
		{
			"channels":[
				{
					"sampler":0,
					"target":{
						"node":1,
						"path":"scale"
					}
				}
			],
			"name":"ToMania",
			"samplers":[
				{
					"input":10,
					"interpolation":"LINEAR",
					"output":11
				}
			]
		},
		{
			"channels":[
				{
					"sampler":0,
					"target":{
						"node":1,
						"path":"scale"
					}
				}
			],
			"name":"FromMania",
			"samplers":[
				{
					"input":10,
					"interpolation":"LINEAR",
					"output":12
				}
			]
		},
		{
			"channels":[
				{
					"sampler":0,
					"target":{
						"node":1,
						"path":"scale"
					}
				}
			],
			"name":"Shuttle",
			"samplers":[
				{
					"input":10,
					"interpolation":"LINEAR",
					"output":13
				}
			]
		}
	],
	"materials":[
		{
			"doubleSided":true,
			"emissiveFactor":[
				1,
				1,
				1
			],
			"name":"iris",
			"pbrMetallicRoughness":{
				"baseColorFactor":[
					0,
					0,
					0,
					1
				]
			}
		},
		{
			"doubleSided":true,
			"name":"lid",
			"pbrMetallicRoughness":{}
		}
	],
	"meshes":[
		{
			"name":"circle",
			"primitives":[
				{
					"attributes":{
						"POSITION":0,
						"NORMAL":1,
						"TEXCOORD_0":2
					},
					"indices":3,
					"material":0
				}
			]
		},
		{
			"name":"lid",
			"primitives":[
				{
					"attributes":{
						"POSITION":4,
						"NORMAL":5,
						"TEXCOORD_0":6
					},
					"indices":7,
					"material":1
				}
			]
		}
	],
	"accessors":[
		{
			"bufferView":0,
			"componentType":5126,
			"count":36,
			"max":[
				0.030001595616340637,
				0,
				0.030003823339939117
			],
			"min":[
				-0.02999959886074066,
				0,
				-0.029984697699546814
			],
			"type":"VEC3"
		},
		{
			"bufferView":1,
			"componentType":5126,
			"count":36,
			"type":"VEC3"
		},
		{
			"bufferView":2,
			"componentType":5126,
			"count":36,
			"type":"VEC2"
		},
		{
			"bufferView":3,
			"componentType":5123,
			"count":102,
			"type":"SCALAR"
		},
		{
			"bufferView":4,
			"componentType":5126,
			"count":32,
			"max":[
				0.05245744064450264,
				0,
				0.032018087804317474
			],
			"min":[
				-0.05245543643832207,
				0,
				-0.03199896216392517
			],
			"type":"VEC3"
		},
		{
			"bufferView":5,
			"componentType":5126,
			"count":32,
			"type":"VEC3"
		},
		{
			"bufferView":6,
			"componentType":5126,
			"count":32,
			"type":"VEC2"
		},
		{
			"bufferView":7,
			"componentType":5123,
			"count":90,
			"type":"SCALAR"
		},
		{
			"bufferView":8,
			"componentType":5126,
			"count":21,
			"max":[
				0.3333333333333333
			],
			"min":[
				0
			],
			"type":"SCALAR"
		},
		{
			"bufferView":9,
			"componentType":5126,
			"count":21,
			"type":"VEC4"
		},
		{
			"bufferView":10,
			"componentType":5126,
			"count":20,
			"max":[
				0.3333333333333333
			],
			"min":[
				0.016666666666666666
			],
			"type":"SCALAR"
		},
		{
			"bufferView":11,
			"componentType":5126,
			"count":20,
			"type":"VEC3"
		},
		{
			"bufferView":12,
			"componentType":5126,
			"count":20,
			"type":"VEC3"
		},
		{
			"bufferView":13,
			"componentType":5126,
			"count":20,
			"type":"VEC3"
		}
	],
	"bufferViews":[
		{
			"buffer":0,
			"byteLength":432,
			"byteOffset":0,
			"target":34962
		},
		{
			"buffer":0,
			"byteLength":432,
			"byteOffset":432,
			"target":34962
		},
		{
			"buffer":0,
			"byteLength":288,
			"byteOffset":864,
			"target":34962
		},
		{
			"buffer":0,
			"byteLength":204,
			"byteOffset":1152,
			"target":34963
		},
		{
			"buffer":0,
			"byteLength":384,
			"byteOffset":1356,
			"target":34962
		},
		{
			"buffer":0,
			"byteLength":384,
			"byteOffset":1740,
			"target":34962
		},
		{
			"buffer":0,
			"byteLength":256,
			"byteOffset":2124,
			"target":34962
		},
		{
			"buffer":0,
			"byteLength":180,
			"byteOffset":2380,
			"target":34963
		},
		{
			"buffer":0,
			"byteLength":84,
			"byteOffset":2560
		},
		{
			"buffer":0,
			"byteLength":336,
			"byteOffset":2644
		},
		{
			"buffer":0,
			"byteLength":80,
			"byteOffset":2980
		},
		{
			"buffer":0,
			"byteLength":240,
			"byteOffset":3060
		},
		{
			"buffer":0,
			"byteLength":240,
			"byteOffset":3300
		},
		{
			"buffer":0,
			"byteLength":240,
			"byteOffset":3540
		}
	],
	"buffers":[
		{
			"byteLength":3780,
			"uri":"eye.bin"
		}
	]
}
